<?xml version="1.0" encoding="UTF-8" standalone="no"?>
<svg
   xmlns:dc="http://purl.org/dc/elements/1.1/"
   xmlns:cc="http://creativecommons.org/ns#"
   xmlns:rdf="http://www.w3.org/1999/02/22-rdf-syntax-ns#"
   xmlns:svg="http://www.w3.org/2000/svg"
   xmlns="http://www.w3.org/2000/svg"
   xmlns:sodipodi="http://sodipodi.sourceforge.net/DTD/sodipodi-0.dtd"
   xmlns:inkscape="http://www.inkscape.org/namespaces/inkscape"
   height="512"
   width="384"
   id="svg1417"
   version="1.1"
   viewBox="0 0 384 512"
   sodipodi:docname="oxnote_logo.svg"
   inkscape:version="0.92.2 5c3e80d, 2017-08-06">
  <sodipodi:namedview
     pagecolor="#ffffff"
     bordercolor="#666666"
     borderopacity="1"
     objecttolerance="10"
     gridtolerance="10"
     guidetolerance="10"
     inkscape:pageopacity="0"
     inkscape:pageshadow="2"
     inkscape:window-width="1729"
     inkscape:window-height="1036"
     id="namedview106"
     showgrid="false"
     inkscape:zoom="0.84472656"
     inkscape:cx="891.75604"
     inkscape:cy="699.26555"
     inkscape:window-x="0"
     inkscape:window-y="0"
     inkscape:window-maximized="0"
     inkscape:current-layer="g8673"
     inkscape:snap-grids="true"
     inkscape:snap-page="false" />
  <metadata
     id="metadata1423">
    <rdf:RDF>
      <cc:Work
         rdf:about="">
        <dc:format>image/svg+xml</dc:format>
        <dc:type
           rdf:resource="http://purl.org/dc/dcmitype/StillImage" />
        <dc:title />
      </cc:Work>
    </rdf:RDF>
  </metadata>
  <defs
     id="defs1421" />
  <flowRoot
     xml:space="preserve"
     id="flowRoot4735"
     style="fill:black;fill-opacity:1;stroke:none;font-family:sans-serif;font-style:normal;font-weight:normal;font-size:40px;line-height:1.25;letter-spacing:0px;word-spacing:0px"><flowRegion
       id="flowRegion4737"><rect
         id="rect4739"
         width="340.93872"
         height="71.0289"
         x="474.70984"
         y="-345.08209" /></flowRegion><flowPara
       id="flowPara4741" /></flowRoot>  <g
     id="g8673">
    <g
       id="g857"
       inkscape:export-xdpi="96"
       inkscape:export-ydpi="96">
      <rect
         y="-409.00809"
         x="723.31097"
         height="752.90631"
         width="642.81158"
         id="rect845"
         style="opacity:1;fill:#ffffff;fill-opacity:1;stroke-width:0.98322856" />
      <path
         id="path1415"
         d="m 1333.7525,-491.72717 h -159.9999 c 0,-70.57999 -57.42,-127.99999 -128,-127.99999 -70.58,0 -128,57.42 -128,128 h -160 c -53.02,0 -95.99999,42.98 -95.99999,96 v 703.99999 c 0,53.02 42.97999,96 95.99999,96 h 575.9999 c 53.02,0 96,-42.98 96,-96 v -703.99999 c 0,-53.02 -42.98,-96 -96,-96.00001 z m -12,799.99999 H 769.7526 a 12,12 0 0 1 -12,-12 v -679.99999 a 12,12 0 0 1 12,-12 h 84 v 72 c 0,13.25401 10.746,24 24,24 h 335.9999 c 13.254,0 24,-10.74599 24,-24 v -72 h 84 a 12,12 0 0 1 12,12 v 679.99999 a 12,12 0 0 1 -12,12 z m -275.9999,-847.99998 c 26.51,0 48,21.49 48,48 0,26.51 -21.49,48 -48,48 -26.51,0 -48,-21.49 -48,-48 0,-26.51 21.49,-48 48,-48"
         inkscape:connector-curvature="0"
         style="opacity:1;fill:#2d2d2d;fill-opacity:1;stroke-width:2" />
      <text
         xml:space="preserve"
         style="font-style:normal;font-variant:normal;font-weight:800;font-stretch:normal;font-size:128px;line-height:1.25;font-family:'Open Sans';-inkscape-font-specification:'Open Sans, Ultra-Bold';font-variant-ligatures:normal;font-variant-caps:normal;font-variant-numeric:normal;font-feature-settings:normal;text-align:start;letter-spacing:0px;word-spacing:0px;writing-mode:lr-tb;text-anchor:start;fill:#052d4b;fill-opacity:1;stroke:none"
         x="847.35876"
         y="77.067047"
         id="text4605"><tspan
           sodipodi:role="line"
           id="tspan4603"
           x="847.35876"
           y="77.067047"
           style="font-style:normal;font-variant:normal;font-weight:800;font-stretch:normal;font-size:128px;font-family:'Open Sans';-inkscape-font-specification:'Open Sans, Ultra-Bold';font-variant-ligatures:normal;font-variant-caps:normal;font-variant-numeric:normal;font-feature-settings:normal;text-align:start;writing-mode:lr-tb;text-anchor:start;fill:#052d4b;fill-opacity:1">Notes</tspan></text>
      <g
         id="g932"
         transform="translate(769.32573,-272.01445)"
         style="opacity:1;fill:#052d4b;fill-opacity:1">
        <path
           id="path922"
           d="m 269.226,173.566 v -60.389 c 0,-22.648 -18.359,-41.016 -41.013,-41.016 H 113.052 c -22.654,0 -41.016,18.367 -41.016,41.016 v 60.389 c 0,22.647 18.361,41.012 41.016,41.012 h 115.161 c 22.654,0 41.013,-18.364 41.013,-41.012 m -43.819,-69.495 v 78.593 c 0.004,1.429 0.545,2.854 1.614,3.956 -1.096,-1.078 -2.524,-1.615 -3.951,-1.62 H 118.187 c -1.426,0.005 -2.855,0.542 -3.951,1.62 1.068,-1.103 1.609,-2.527 1.615,-3.956 v -78.593 c -0.005,-1.431 -0.547,-2.858 -1.615,-3.955 1.096,1.071 2.525,1.61 3.951,1.615 H 223.07 c 1.427,-0.005 2.855,-0.544 3.951,-1.615 -1.068,1.097 -1.61,2.525 -1.614,3.955"
           inkscape:connector-curvature="0"
           style="fill:#052d4b;fill-opacity:1" />
        <path
           id="path924"
           d="m 367.801,168.29 c 0,1.641 -0.688,3.108 -1.794,4.146 l -38.729,38.712 c -2.057,2.108 -4.931,3.418 -8.115,3.43 H 263.55 l 72.453,-72.404 c 1.041,-1.021 2.456,-1.654 4.022,-1.654 -1.566,0 -2.981,-0.629 -4.022,-1.654 L 269.256,72.164 h 60.297 l 36.454,36.439 c 1.106,1.038 1.794,2.506 1.794,4.148 0.004,-1.642 0.696,-3.11 1.79,-4.148 l 36.463,-36.439 h 60.296 l -66.748,66.702 c -1.041,1.025 -2.455,1.654 -4.019,1.654 1.563,0 2.978,0.633 4.019,1.654 l 72.452,72.404 h -55.612 c -3.184,-0.012 -6.057,-1.321 -8.117,-3.43 l -38.733,-38.712 c -1.095,-1.038 -1.787,-2.505 -1.791,-4.146"
           inkscape:connector-curvature="0"
           style="fill:#052d4b;fill-opacity:1" />
        <g
           id="g930"
           style="fill:#052d4b;fill-opacity:1">
          <path
             id="path926"
             d="m 486.706,79.112 h 1.078 c 1.055,0 1.833,-0.174 2.342,-0.528 0.5,-0.355 0.748,-0.904 0.748,-1.661 0,-0.747 -0.254,-1.277 -0.77,-1.594 -0.511,-0.316 -1.305,-0.474 -2.385,-0.474 h -1.014 v 4.257 z m 0,2.713 v 6.045 h -3.343 V 72.118 h 4.595 c 2.141,0 3.726,0.39 4.752,1.167 1.028,0.78 1.538,1.965 1.538,3.549 0,0.93 -0.255,1.757 -0.762,2.475 -0.516,0.725 -1.231,1.287 -2.168,1.701 2.369,3.54 3.918,5.825 4.632,6.861 h -3.701 l -3.766,-6.045 h -1.777 z"
             inkscape:connector-curvature="0"
             style="fill:#052d4b;fill-opacity:1" />
          <path
             id="path928"
             d="m 488.936,68.672 c -6.399,0 -11.613,5.208 -11.613,11.614 0,6.406 5.214,11.616 11.613,11.616 6.408,0 11.617,-5.21 11.617,-11.616 0,-6.405 -5.209,-11.614 -11.617,-11.614 m 0,26.204 c -8.047,0 -14.591,-6.542 -14.591,-14.59 0,-8.042 6.544,-14.59 14.591,-14.59 8.048,0 14.594,6.548 14.594,14.59 -10e-4,8.048 -6.547,14.59 -14.594,14.59"
             inkscape:connector-curvature="0"
             style="fill:#052d4b;fill-opacity:1" />
        </g>
      </g>
    </g>
  </g>
</svg>
